<svg id="Layer_1" data-name="Layer 1" xmlns="http://www.w3.org/2000/svg" viewBox="0 0 152.72 88.05"><defs><style>.cls-1{fill:#fff;}</style></defs><rect class="cls-1" x="143.11" y="51.44" width="6.69" height="6.69" rx="2.56"/><path class="cls-1" d="M148.2,16.51h0a31,31,0,0,0-4.95-6.63,21.43,21.43,0,0,0-7.33,1.55c-.23.09-.43.22-.65.32C136.33,12.46,137,13,137,13a23.91,23.91,0,0,1,3.45,3.59h0c5.39,6.91,7.27,16.86,5.17,26.89a40.52,40.52,0,0,1-1.85,6.23l.68,0a22.11,22.11,0,0,0,3.19-.21,20,20,0,0,0,3.34-.73,46.87,46.87,0,0,0,1.69-7.94A40,40,0,0,0,148.2,16.51Zm-2.35-.41.52,0,.24,0Z" transform="translate(-0.25 -0.25)"/><path class="cls-1" d="M87.48,41.21l3.32-.15-3.33-.12C87.47,41,87.48,41.12,87.48,41.21Z" transform="translate(-0.25 -0.25)"/><path class="cls-1" d="M135.91,11.43a21.43,21.43,0,0,1,7.33-1.55c-.65-.66-1.33-1.3-2.05-1.9-.54-.45-13.44-11.06-28.84-6.68-11,3.14-16.52,12.22-18.88,16.1a40.67,40.67,0,0,0-3.82,8.21,17.75,17.75,0,0,0-4.53-4.39c-4.51-3-10.39-3.88-16.55-2.42a24.77,24.77,0,0,0-7.91,3.53c-7.53-7.55-17-12.74-28-10.83C15,14.52-2.28,34.93.55,62.63L7.05,62C4.7,38.77,19,20.47,33.76,17.94c8.32-1.42,15.73,2.57,21.87,8.58a47.54,47.54,0,0,0-9.45,14.29c-5.9,13.3-6.6,28.17-1.76,37,.91,1.66,3.68,6.72,9.52,9.18a16.85,16.85,0,0,0,6.63,1.31,20.94,20.94,0,0,0,7.78-1.56l.4-.16c.38-.16.7-.31,1-.43a19.35,19.35,0,0,0,4.71-3.29,23.66,23.66,0,0,0,6-9.58c1-2.81,2.17-8.44.17-16.4h0c-.25-1-.53-2-.88-3s-.69-2-1.12-3.06h0A92.51,92.51,0,0,0,65.07,27.26a18,18,0,0,1,5-2.1c2.52-.61,7.36-1.21,11.38,1.49,4.81,3.22,5.79,9.43,6,12.53v0h0c0,.57,0,1.13,0,1.67h0v0l3.33.12L94,40.92h0a18.48,18.48,0,0,0,0-2h0s0,0,0,0a35.25,35.25,0,0,1,5.08-18c2.14-3.49,6.57-10.78,15.1-13.21,9.24-2.64,17.62,1.85,21.11,4.16C135.48,11.65,135.68,11.52,135.91,11.43ZM72.12,52.33A21,21,0,0,1,76.85,51h0a21,21,0,0,0-4.73,1.34c.54,1.34,1,2.55,1.33,3.58s.54,1.73.74,2.55h0c1.65,6.57.59,11,0,12.66a17,17,0,0,1-4.63,7.29,12.63,12.63,0,0,1-2.78,1.87,14.86,14.86,0,0,1-3.46,1.18A11.38,11.38,0,0,1,56.48,81a13.4,13.4,0,0,1-6.33-6.3c-3.85-7-3-19.83,2-31.2A41.83,41.83,0,0,1,60,31.37,88.16,88.16,0,0,1,72.12,52.33Z" transform="translate(-0.25 -0.25)"/><path class="cls-1" d="M94,41.18a2.25,2.25,0,0,0,0-.26l-3.21.14Z" transform="translate(-0.25 -0.25)"/></svg>